Y:\Users\EMiller\ForSelim\Mono_v2_HybridSims\subject10walking1\OpenSimData\Dynamics\walking1\GRF_resultant_walking1_case_mono_2sphereshift.mot
version=1
nRows=27
nColumns=19
inDegrees=yes
endheader 
time	ground_force_right_vx	ground_force_right_vy	ground_force_right_vz	ground_force_right_px	ground_force_right_py	ground_force_right_pz	ground_torque_right_x	ground_torque_right_y	ground_torque_right_z	ground_force_left_vx	ground_force_left_vy	ground_force_left_vz	ground_force_left_px	ground_force_left_py	ground_force_left_pz	ground_torque_left_x	ground_torque_left_y	ground_torque_left_z	
          0.93000000	         -3.77179249	          1.68586608	          0.40788159	          1.38625054	          0.00000000	         -0.23196975	          0.00000000	         -0.00000002	          0.00000000	         58.55805182	        617.56724608	         35.54951587	          0.97720389	          0.00000000	         -0.32874867	          0.00000000	         -3.03990591	          0.00000000	
          0.94000000	         -3.35501929	          1.63705592	          0.38766083	          1.41249006	          0.00000000	         -0.23480305	          0.00000000	         -0.00000002	          0.00000000	         62.44573259	        641.58396552	         37.18604106	          0.98002794	          0.00000000	         -0.33027788	          0.00000000	         -3.84660629	          0.00000000	
          0.95000000	         -3.66124857	          1.97847595	          0.44424951	          1.43465387	          0.00000000	         -0.23734950	          0.00000000	         -0.00000003	          0.00000000	         67.42647288	        665.91804106	         38.17661326	          0.98337511	          0.00000000	         -0.33215356	          0.00000000	         -3.66535559	          0.00000000	
          0.96000000	         -4.94273677	          3.01296361	          0.62308035	          1.45257012	          0.00000000	         -0.23950824	          0.00000000	         -0.00000009	          0.00000000	         73.66042652	        688.86830585	         38.21531062	          0.98748297	          0.00000000	         -0.33428764	          0.00000000	         -3.06345695	          0.00000000	
          0.97000000	         -7.73383230	          5.45026618	          1.00112355	          1.46620364	          0.00000000	         -0.24121018	          0.00000000	         -0.00000056	          0.00000000	         81.91459343	        707.94654738	         37.41144311	          0.99240823	          0.00000000	         -0.33664300	          0.00000000	         -2.14096552	          0.00000000	
          0.98000000	        -12.47833466	         10.47491841	          1.66542203	          1.47567426	          0.00000000	         -0.24243240	          0.00000000	         -0.00000728	          0.00000000	         92.27552082	        721.16936724	         36.19315840	          0.99794748	          0.00000000	         -0.33892008	          0.00000000	         -1.50401599	          0.00000000	
          0.99000000	        -25.73392287	         26.22106876	          3.95892400	          1.48139514	          0.00000000	         -0.24321396	          0.00000000	         -0.00018697	          0.00000000	        104.04655264	        724.97955902	         34.30853089	          1.00344595	          0.00000000	         -0.34041590	          0.00000000	         -1.95591679	          0.00000000	
          1.00000000	        -12.19014607	         65.27396490	          4.54318621	          1.48555126	          0.00000000	         -0.24380192	          0.00000000	         -0.00783942	          0.00000000	        115.72453667	        716.11017343	         31.77606062	          1.00835725	          0.00000000	         -0.34160892	          0.00000000	         -2.05564584	          0.00000000	
          1.01000000	         -5.04956083	        117.90396551	          5.04491483	          1.48864497	          0.00000000	         -0.24429127	          0.00000000	         -0.08751682	          0.00000000	        124.86626703	        692.51598982	         30.17232788	          1.01334818	          0.00000000	         -0.34149930	          0.00000000	         -2.40265605	          0.00000000	
          1.02000000	        -12.60491619	        173.40077146	         12.93565000	          1.49362439	          0.00000000	         -0.24451928	          0.00000000	         -0.25931686	          0.00000000	        130.17947678	        653.30026937	         28.78295370	          1.01820452	          0.00000000	         -0.34059563	          0.00000000	         -1.94614168	          0.00000000	
          1.03000000	        -20.02146399	        231.84705657	         16.66274466	          1.50431270	          0.00000000	         -0.24417345	          0.00000000	         -0.06930334	          0.00000000	        129.93776918	        599.36873837	         24.22607679	          1.02416666	          0.00000000	         -0.33832972	          0.00000000	         -1.13969418	          0.00000000	
          1.04000000	        -31.31127405	        292.06391199	         14.86822649	          1.51773692	          0.00000000	         -0.24376816	          0.00000000	          1.02596143	          0.00000000	        123.69336056	        532.40100518	         19.45778043	          1.03358898	          0.00000000	         -0.33339761	          0.00000000	         -0.71212392	          0.00000000	
          1.05000000	        -48.32171103	        361.17303429	         11.17973524	          1.53168214	          0.00000000	         -0.24244410	          0.00000000	          3.90173453	          0.00000000	        114.50804933	        455.75456457	         14.28575474	          1.04847539	          0.00000000	         -0.32401666	          0.00000000	         -0.24996370	          0.00000000	
          1.06000000	        -60.63658777	        422.22466367	         10.29242992	          1.54052206	          0.00000000	         -0.24228342	          0.00000000	          6.17967732	          0.00000000	        101.63658101	        375.35057809	         10.63924211	          1.07033943	          0.00000000	         -0.30780185	          0.00000000	          1.58467986	          0.00000000	
          1.07000000	        -74.21986008	        481.77930516	          7.81285719	          1.54573708	          0.00000000	         -0.24384981	          0.00000000	          8.04317678	          0.00000000	         83.61767626	        287.04879173	          6.60716333	          1.07812041	          0.00000000	         -0.29995577	          0.00000000	          1.44166707	          0.00000000	
          1.08000000	        -86.36259991	        532.00655767	          3.84067164	          1.54954100	          0.00000000	         -0.24510615	          0.00000000	          8.61289546	          0.00000000	         66.43711372	        211.37202921	          2.44134140	          1.07948781	          0.00000000	         -0.29613788	          0.00000000	          0.90159678	          0.00000000	
          1.09000000	        -95.86584543	        574.76387750	         -1.01004341	          1.55226093	          0.00000000	         -0.24561830	          0.00000000	          7.75240396	          0.00000000	         47.99393420	        143.50331209	          0.10089454	          1.08096217	          0.00000000	         -0.29350654	          0.00000000	          0.49833954	          0.00000000	
          1.10000000	       -102.21249519	        609.51533658	         -7.32524572	          1.55540208	          0.00000000	         -0.24547434	          0.00000000	          5.84400598	          0.00000000	         29.88927451	         89.45360168	         -1.64023248	          1.08244059	          0.00000000	         -0.29199159	          0.00000000	          0.25565123	          0.00000000	
          1.11000000	       -103.98777635	        636.70056074	        -14.26110206	          1.55877459	          0.00000000	         -0.24483842	          0.00000000	          3.99424990	          0.00000000	         -6.22837597	         31.99964238	          0.07975966	          1.08119468	          0.00000000	         -0.29282999	          0.00000000	          0.10027976	          0.00000000	
          1.12000000	       -108.20104529	        657.96029326	        -20.67447779	          1.56121920	          0.00000000	         -0.24388606	          0.00000000	          1.87274213	          0.00000000	          0.00000000	         -0.00000000	         -0.00000000	          0.00000000	          0.00000000	          0.00000000	          0.00000000	          0.00000000	          0.00000000	
          1.13000000	       -110.54107562	        668.22273927	        -26.52302994	          1.56452934	          0.00000000	         -0.24258346	          0.00000000	         -1.02784783	          0.00000000	          0.00000000	         -0.00000000	         -0.00000000	          0.00000000	          0.00000000	          0.00000000	          0.00000000	          0.00000000	          0.00000000	
          1.14000000	       -109.16014864	        671.30789137	        -32.06028017	          1.56778622	          0.00000000	         -0.24111419	          0.00000000	         -3.39785129	          0.00000000	          0.00000000	         -0.00000000	         -0.00000000	          0.00000000	          0.00000000	          0.00000000	          0.00000000	          0.00000000	          0.00000000	
          1.15000000	       -105.37173417	        668.34474652	        -36.65727789	          1.57112965	          0.00000000	         -0.23957108	          0.00000000	         -5.78773908	          0.00000000	          0.00000000	         -0.00000000	         -0.00000000	          0.00000000	          0.00000000	          0.00000000	          0.00000000	          0.00000000	          0.00000000	
          1.16000000	       -102.38533420	        661.08713340	        -40.72592742	          1.57402105	          0.00000000	         -0.23806505	          0.00000000	         -7.37738879	          0.00000000	          0.00000000	         -0.00000000	         -0.00000000	          0.00000000	          0.00000000	          0.00000000	          0.00000000	         -0.00000000	          0.00000000	
          1.17000000	        -96.25852048	        649.59871632	        -43.94877385	          1.57690614	          0.00000000	         -0.23670760	          0.00000000	         -8.41977574	          0.00000000	          0.00000000	         -0.00000000	         -0.00000000	          0.00000000	          0.00000000	          0.00000000	          0.00000000	         -0.00000000	          0.00000000	
          1.18000000	        -90.89989947	        637.22461343	        -46.20783712	          1.57972502	          0.00000000	         -0.23546917	          0.00000000	         -9.36709520	          0.00000000	          0.00000000	         -0.00000000	         -0.00000000	          0.00000000	          0.00000000	          0.00000000	          0.00000000	         -0.00000000	          0.00000000	
          1.19000000	        -85.98481847	        624.03847543	        -47.93758586	          1.58245076	          0.00000000	         -0.23437684	          0.00000000	         -9.28174336	          0.00000000	          0.00000000	         -0.00000000	         -0.00000000	          0.00000000	          0.00000000	          0.00000000	          0.00000000	         -0.00000000	          0.00000000	
